<?xml version="1.0" standalone="no"?><!DOCTYPE svg PUBLIC "-//W3C//DTD SVG 1.1//EN" "http://www.w3.org/Graphics/SVG/1.1/DTD/svg11.dtd"><svg t="1548321308805" class="icon" style="" viewBox="0 0 1024 1024" version="1.1" xmlns="http://www.w3.org/2000/svg" p-id="2903" xmlns:xlink="http://www.w3.org/1999/xlink" width="200" height="200"><defs><style type="text/css"></style></defs><path d="M780.007475 65.203024 243.903497 65.203024c-98.642624 0-178.61298 80.013335-178.61298 178.744987l0 536.105001c0 98.730629 79.969333 178.744987 178.61298 178.744987l536.105001 0c98.728582 0 178.700985-80.013335 178.700985-178.744987L958.709483 243.948011C958.70846 145.217383 878.73708 65.203024 780.007475 65.203024zM869.44546 735.421512c0 73.994248-60.119239 133.939525-134.113487 133.939525L288.667004 869.361037c-74.082252 0-134.071532-59.945277-134.071532-133.939525L154.595472 288.624537c0-73.994248 59.989279-133.983527 134.071532-133.983527l446.664969 0c73.994248 0 134.113487 59.989279 134.113487 133.983527L869.44546 735.421512zM643.974265 422.692998c-64.570621 1.178849-132.018779 89.307002-132.018779 89.307002s-68.410066-88.128153-133.983527-89.307002c-76.741825-1.394766-178.744987-44.76146-178.744987-44.76146s-3.839445 190.043311 89.439008 268.13897c58.504462 49.082882 223.288482 89.351004 223.288482 89.351004s165.787884-40.269146 223.376487-89.351004c91.793636-78.094636 89.436962-268.13897 89.436962-268.13897S719.538265 421.298232 643.974265 422.692998zM422.647461 601.309048c-75.956949-2.356674-89.307002-83.19991-89.307002-83.19991s28.838815-11.474332 66.926272 0c58.680471 17.670451 67.01223 75.259054 67.01223 75.259054S460.429972 602.485851 422.647461 601.309048zM601.392448 601.309048c-39.963177 0.915859-44.675502-9.423627-44.675502-9.423627s8.334829-57.502645 66.926272-75.17105c38.174438-11.474332 67.01223 0 67.01223 0S679.488107 599.649246 601.392448 601.309048z" p-id="2904"></path></svg>